<svg id="hp" xmlns="http://www.w3.org/2000/svg" viewBox="0 0 208 127.34"><title>icons</title><path d="M41,15.5c-4.26,0-9,6-9,6s-4.74-6-9-6-9,4.48-9,12c0,11.63,13.79,19.77,18,21,4.21-1.23,18-9.37,18-21C50,20,45.26,15.5,41,15.5Z" transform="translate(-14 -4)"/><path d="M112,20l-9,4s0.47,10.84,2.25,14c1.07,1.9,6.75,6,6.75,6s5.68-4.1,6.75-6c1.78-3.16,2.25-14,2.25-14Z" transform="translate(-14 -4)"/><path d="M112,11L96.25,18s0.82,19,3.94,24.5C102.06,45.82,112,53,112,53s9.94-7.18,11.81-10.5C126.93,37,127.75,18,127.75,18Zm0,38.78s-8.42-6.08-10-8.89c-2.64-4.68-3.33-20.74-3.33-20.74L112,14.22l13.33,5.93S124.64,36.2,122,40.89C120.42,43.7,112,49.78,112,49.78Z" transform="translate(-14 -4)"/><polygon points="105.65 88.72 110.58 87.34 111.95 92.27 107.22 89.6 105.65 88.72"/><rect x="98.47" y="105.09" width="28.94" height="0.9" transform="translate(-48.46 148.09) rotate(-60.59)"/><rect x="102.41" y="105.5" width="28.94" height="4.52" transform="translate(-48.39 152.65) rotate(-60.59)"/><path d="M100.71,115.26L98,120l5.51,3.11L101,127.67a2,2,0,0,0,.75,2.69l1.28,0.72a2,2,0,0,0,2.69-.75l2.58-4.58,5.51,3.11,2.66-4.73Z" transform="translate(-14 -4)"/><path d="M209,4a5,5,0,0,1-5,5,5,5,0,0,1,5,5,5,5,0,0,1,5-5A5,5,0,0,1,209,4Z" transform="translate(-14 -4)"/><path d="M217,10a5,5,0,0,1-5,5,5,5,0,0,1,5,5,5,5,0,0,1,5-5A5,5,0,0,1,217,10Z" transform="translate(-14 -4)"/><path d="M213,18a5,5,0,0,1-5,5,5,5,0,0,1,5,5,5,5,0,0,1,5-5A5,5,0,0,1,213,18Z" transform="translate(-14 -4)"/><path d="M192,20l-9,4s0.47,10.84,2.25,14c1.07,1.9,6.75,6,6.75,6s5.68-4.1,6.75-6c1.78-3.16,2.25-14,2.25-14Z" transform="translate(-14 -4)"/><path d="M192,11l-15.75,7s0.82,19,3.94,24.5C182.06,45.82,192,53,192,53s9.94-7.18,11.81-10.5C206.93,37,207.75,18,207.75,18Zm0,38.78s-8.42-6.08-10-8.89c-2.64-4.68-3.33-20.74-3.33-20.74L192,14.22l13.33,5.93S204.64,36.2,202,40.89C200.42,43.7,192,49.78,192,49.78Z" transform="translate(-14 -4)"/><polygon points="185.65 88.72 190.58 87.34 191.95 92.27 187.22 89.6 185.65 88.72"/><rect x="178.47" y="105.09" width="28.94" height="0.9" transform="translate(-7.75 217.78) rotate(-60.59)"/><rect x="182.41" y="105.5" width="28.94" height="4.52" transform="translate(-7.68 222.34) rotate(-60.59)"/><path d="M180.71,115.26L178,120l5.51,3.11L181,127.67a2,2,0,0,0,.75,2.69l1.28,0.72a2,2,0,0,0,2.69-.75l2.58-4.58,5.51,3.11,2.66-4.73Z" transform="translate(-14 -4)"/><path d="M209,84a5,5,0,0,1-5,5,5,5,0,0,1,5,5,5,5,0,0,1,5-5A5,5,0,0,1,209,84Z" transform="translate(-14 -4)"/><path d="M217,90a5,5,0,0,1-5,5,5,5,0,0,1,5,5,5,5,0,0,1,5-5A5,5,0,0,1,217,90Z" transform="translate(-14 -4)"/><path d="M213,98a5,5,0,0,1-5,5,5,5,0,0,1,5,5,5,5,0,0,1,5-5A5,5,0,0,1,213,98Z" transform="translate(-14 -4)"/></svg>