<svg id="special-attack" xmlns="http://www.w3.org/2000/svg" viewBox="0 0 64 64"><title>icons</title><path d="M49,4a5,5,0,0,1-5,5,5,5,0,0,1,5,5,5,5,0,0,1,5-5A5,5,0,0,1,49,4Z"/><path d="M57,10a5,5,0,0,1-5,5,5,5,0,0,1,5,5,5,5,0,0,1,5-5A5,5,0,0,1,57,10Z"/><path d="M53,18a5,5,0,0,1-5,5,5,5,0,0,1,5,5,5,5,0,0,1,5-5A5,5,0,0,1,53,18Z"/><path d="M32,20l-9,4s0.47,10.84,2.25,14C26.32,39.9,32,44,32,44s5.68-4.1,6.75-6C40.53,34.84,41,24,41,24Z"/><path d="M32,11L16.25,18s0.82,19,3.94,24.5C22.06,45.82,32,53,32,53s9.94-7.18,11.81-10.5C46.93,37,47.75,18,47.75,18Zm0,38.78s-8.42-6.08-10-8.89c-2.64-4.68-3.33-20.74-3.33-20.74L32,14.22l13.33,5.93S44.64,36.2,42,40.89C40.42,43.7,32,49.78,32,49.78Z"/></svg>